# xmcd
#
# Track frame offsets: 
#        150
#        25640
#        46750
#        64852
#        95010
#        126722
#        163557
#        177335
#        196097
#        238452
#        271267
#        302857
#
# Disc length: 4508 seconds
#
# Revision: 2
# Processed by: cddbd v1.5.2PL0 Copyright (c) Steve Scherf et al.
# Submitted via: ExactAudioCopy v0.95b4
#
DISCID=a8119a0c
DTITLE=Sviatoslav Richter - Beethoven - Schubert - Schumann 01
DYEAR=1992
DGENRE=Classical
TTITLE0=Beethoven - Sonate für Piano No 1 - Allegro
TTITLE1=Beethoven - Sonate für Piano No 1 - Adagio
TTITLE2=Beethoven - Sonate für Piano No 1 - Menuetto
TTITLE3=Beethoven - Sonate für Piano No 1 - Prestissimo
TTITLE4=Beethoven - Sonate für Piano No 7 - Presto
TTITLE5=Beethoven - Sonate für Piano No 7 - Largo e mesto
TTITLE6=Beethoven - Sonate für Piano No 7 - Menuetto
TTITLE7=Beethoven - Sonate für Piano No 7 - Rondo
TTITLE8=Beethoven - Sonate für Piano No 17 - Largo Allegro
TTITLE9=Beethoven - Sonate für Piano No 17 - Adagio
TTITLE10=Beethoven - Sonate für Piano No 17 - Allegretto
TTITLE11=Beethoven - Andante favori in F major
EXTD=
EXTT0=
EXTT1=
EXTT2=
EXTT3=
EXTT4=
EXTT5=
EXTT6=
EXTT7=
EXTT8=
EXTT9=
EXTT10=
EXTT11=
PLAYORDER=
